<svg xmlns="http://www.w3.org/2000/svg" width="27.966" height="35.841" viewBox="0 0 27.966 35.841"><path d="M51.249,5.447A6.961,6.961,0,0,0,53.26,0a9.09,9.09,0,0,0-5.692,2.584,6.667,6.667,0,0,0-2.053,5.28A7.579,7.579,0,0,0,51.249,5.447Zm4.138,13.8a8.03,8.03,0,0,1,3.707-6.737,7.937,7.937,0,0,0-6.28-3.506c-2.676-.281-5.218,1.621-6.576,1.621s-3.446-1.584-5.665-1.541a8.371,8.371,0,0,0-7.1,4.44c-3.031,5.417-.777,13.441,2.177,17.835,1.444,2.151,3.163,4.564,5.42,4.477,2.179-.087,3-1.449,5.63-1.449s3.367,1.449,5.668,1.406c2.341-.044,3.823-2.192,5.255-4.35a19.781,19.781,0,0,0,2.378-5.032A7.8,7.8,0,0,1,55.387,19.251Z" transform="translate(-32.029)"/></svg>