<svg xmlns="http://www.w3.org/2000/svg" width="55.652" height="50" viewBox="0 0 55.652 50"><defs><style>.a{fill:#fff;}</style></defs><path class="a" d="M247.087,100a1.087,1.087,0,1,0,1.087,1.087A1.087,1.087,0,0,0,247.087,100Zm0,0" transform="translate(-219.261 -89.13)"/><path class="a" d="M81.087,262.174A1.087,1.087,0,1,0,80,261.087,1.087,1.087,0,0,0,81.087,262.174Zm0,0" transform="translate(-71.304 -231.739)"/><path class="a" d="M36.522,0C26.736,0,18.7,6.747,18.083,15.245,8.764,15.712,0,22.432,0,31.522A15.189,15.189,0,0,0,4.239,41.917a6.611,6.611,0,0,1-1.747,6.228A1.087,1.087,0,0,0,3.261,50a11.99,11.99,0,0,0,8.307-3.358,24.77,24.77,0,0,0,7.562,1.184c9.784,0,17.815-6.745,18.438-15.242a24.442,24.442,0,0,0,6.516-1.16,11.99,11.99,0,0,0,8.307,3.358,1.087,1.087,0,0,0,.769-1.855A6.611,6.611,0,0,1,51.413,26.7,15.189,15.189,0,0,0,55.652,16.3C55.652,6.86,46.213,0,36.522,0ZM19.13,45.652a21.973,21.973,0,0,1-7.447-1.283,1.087,1.087,0,0,0-1.2.276A9.808,9.808,0,0,1,5.6,47.54a8.79,8.79,0,0,0,.663-6.47A1.085,1.085,0,0,0,6,40.611a13.062,13.062,0,0,1-3.824-9.09c0-7.66,7.765-14.13,16.957-14.13,8.68,0,16.3,6.036,16.3,14.13C35.435,39.313,28.121,45.652,19.13,45.652ZM49.654,25.394a1.09,1.09,0,0,0-.266.459,8.79,8.79,0,0,0,.663,6.47,9.8,9.8,0,0,1-4.878-2.895,1.088,1.088,0,0,0-1.2-.276,21.412,21.412,0,0,1-6.4,1.256,15.558,15.558,0,0,0-5.873-10.842H45.87a1.087,1.087,0,1,0,0-2.174H28.352a20.272,20.272,0,0,0-8.089-2.142c.625-7.3,7.678-13.075,16.259-13.075,9.192,0,16.957,6.471,16.957,14.13A13.062,13.062,0,0,1,49.654,25.394Zm0,0"/><path class="a" d="M134.783,260h-13.7a1.087,1.087,0,0,0,0,2.174h13.7a1.087,1.087,0,1,0,0-2.174Zm0,0" transform="translate(-106.957 -231.739)"/><path class="a" d="M99.13,320H81.087a1.087,1.087,0,1,0,0,2.174H99.13a1.087,1.087,0,1,0,0-2.174Zm0,0" transform="translate(-71.304 -285.217)"/><path class="a" d="M300.783,100h-13.7a1.087,1.087,0,0,0,0,2.174h13.7a1.087,1.087,0,1,0,0-2.174Zm0,0" transform="translate(-254.913 -89.13)"/></svg>