<svg xmlns="http://www.w3.org/2000/svg" width="34.133" height="37.434" viewBox="0 0 34.133 37.434"><defs><style>.a{fill:#57a4ff;}.a,.b{stroke:#1a3a54;}.b{fill:#004fac;}</style></defs><g transform="translate(0.514 0.5)"><path class="a" d="M203.5,249.763A1.763,1.763,0,1,1,201.739,248,1.763,1.763,0,0,1,203.5,249.763Zm0,0" transform="translate(-185.287 -229.783)"/><path class="b" d="M5.115,31.909a16.336,16.336,0,0,0,11.319,4.525q.219,0,.436-.006a16.451,16.451,0,0,0,11.9-27.346l2.586-2.475a.588.588,0,1,0-.813-.848L27.956,8.232c-.059-.059-.117-.123-.183-.182A16.369,16.369,0,0,0,17.03,3.54c0-.005,0-.009,0-.015V1.175H18.8A.588.588,0,1,0,18.8,0h-4.7a.588.588,0,0,0,0,1.175h1.763V3.54A16.451,16.451,0,0,0,5.115,31.909Zm10.936-27.2c.136-.005.27-.005.4-.005a15.2,15.2,0,1,1-.4.005Zm0,0" transform="translate(0.007)"/><path class="b" d="M95.726,146.18a2.322,2.322,0,0,0-.294,1.11,2.365,2.365,0,1,0,1.088-1.976l-7.746-7.746a.588.588,0,0,0-.831.831Zm3.232,1.11a1.175,1.175,0,1,1-1.175-1.175A1.175,1.175,0,0,1,98.958,147.29Zm0,0" transform="translate(-81.33 -127.31)"/></g></svg>