<svg xmlns="http://www.w3.org/2000/svg" width="37" height="37.841" viewBox="0 0 37 37.841"><defs><style>.a,.c{fill:none;}.a{stroke:#fff;stroke-width:2px;}.b{stroke:none;}</style></defs><g class="a"><path class="b" d="M5,0H16.818a0,0,0,0,1,0,0V16.818a0,0,0,0,1,0,0H0a0,0,0,0,1,0,0V5A5,5,0,0,1,5,0Z"/><path class="c" d="M5,1h9.818a1,1,0,0,1,1,1V14.818a1,1,0,0,1-1,1H2a1,1,0,0,1-1-1V5A4,4,0,0,1,5,1Z"/></g><g class="a" transform="translate(20.182)"><path class="b" d="M0,0H11.818a5,5,0,0,1,5,5V16.818a0,0,0,0,1,0,0H0a0,0,0,0,1,0,0V0A0,0,0,0,1,0,0Z"/><path class="c" d="M2,1h9.818a4,4,0,0,1,4,4v9.818a1,1,0,0,1-1,1H2a1,1,0,0,1-1-1V2A1,1,0,0,1,2,1Z"/></g><g class="a" transform="translate(0 21.023)"><path class="b" d="M0,0H16.818a0,0,0,0,1,0,0V16.818a0,0,0,0,1,0,0H5a5,5,0,0,1-5-5V0A0,0,0,0,1,0,0Z"/><path class="c" d="M2,1H14.818a1,1,0,0,1,1,1V14.818a1,1,0,0,1-1,1H5a4,4,0,0,1-4-4V2A1,1,0,0,1,2,1Z"/></g><g class="a" transform="translate(20.182 21.023)"><path class="b" d="M0,0H16.818a0,0,0,0,1,0,0V11.818a5,5,0,0,1-5,5H0a0,0,0,0,1,0,0V0A0,0,0,0,1,0,0Z"/><path class="c" d="M2,1H14.818a1,1,0,0,1,1,1v9.818a4,4,0,0,1-4,4H2a1,1,0,0,1-1-1V2A1,1,0,0,1,2,1Z"/></g></svg>