<svg xmlns="http://www.w3.org/2000/svg" width="21.131" height="27.321" viewBox="0 0 21.131 27.321"><defs><style>.a{fill:#9b9b9b;}</style></defs><path class="a" d="M15.868,13.8V11.3L11.6,15.6h2.474a1.782,1.782,0,0,0,1.793-1.8Zm0,0" transform="translate(-10.795 -10.513)"/><path class="a" d="M18.873,0H6.184V3.29A2.9,2.9,0,0,1,3.28,6.2H0V25.1a2.247,2.247,0,0,0,2.251,2.223H18.88A2.252,2.252,0,0,0,21.131,25.1V2.223A2.258,2.258,0,0,0,18.873,0ZM4.642,22.372H2.592a.558.558,0,0,1,0-1.115h2.05a.558.558,0,0,1,0,1.115Zm0-5.576H2.592a.558.558,0,0,1,0-1.115h2.05a.558.558,0,0,1,0,1.115Zm0-5.576H2.592a.558.558,0,0,1,0-1.115h2.05a.558.558,0,0,1,0,1.115Zm13.9,11.151H7.449a.558.558,0,0,1,0-1.115H18.532a.56.56,0,0,1,.4.951A.551.551,0,0,1,18.539,22.372Zm0-5.576H7.449a.558.558,0,0,1,0-1.115H18.532a.56.56,0,0,1,.4.951A.551.551,0,0,1,18.539,16.8Zm0-5.576H7.449a.558.558,0,0,1,0-1.115H18.532a.56.56,0,0,1,.4.951A.551.551,0,0,1,18.539,11.221Zm0,0"/></svg>