<svg xmlns="http://www.w3.org/2000/svg" xmlns:xlink="http://www.w3.org/1999/xlink" width="30.994" height="35.465" viewBox="0 0 30.994 35.465"><defs><style>.a{fill:url(#a);}.b{fill:url(#b);}.c{fill:url(#c);}.d{fill:url(#d);}</style><linearGradient id="a" y1="0.5" x2="1" y2="0.5" gradientUnits="objectBoundingBox"><stop offset="0" stop-color="#63be6b"/><stop offset="0.506" stop-color="#5bbc6a"/><stop offset="1" stop-color="#4ab96a"/></linearGradient><linearGradient id="b" y1="0.5" x2="0.999" y2="0.5" gradientUnits="objectBoundingBox"><stop offset="0" stop-color="#3ec6f2"/><stop offset="1" stop-color="#45afe3"/></linearGradient><linearGradient id="c" y1="0.5" x2="1" y2="0.5" gradientUnits="objectBoundingBox"><stop offset="0" stop-color="#faa51a"/><stop offset="0.387" stop-color="#fab716"/><stop offset="0.741" stop-color="#fac412"/><stop offset="1" stop-color="#fac80f"/></linearGradient><linearGradient id="d" y1="0.5" x2="1" y2="0.5" gradientUnits="objectBoundingBox"><stop offset="0" stop-color="#ec3b50"/><stop offset="1" stop-color="#e7515b"/></linearGradient></defs><path class="a" d="M19.88,10.809,1.139.1A.755.755,0,0,0,.38.105.75.75,0,0,0,0,.759s.008.988.015,2.613L13.666,17.023Z" transform="translate(0 0.001)"/><path class="b" d="M.2,44.4c.023,5.865.091,20.1.122,27.188L13.859,58.051Z" transform="translate(-0.185 -41.027)"/><path class="c" d="M196.748,148.43l-10.726-6.13-6.222,6.214,7.019,7.019,9.936-5.789a.759.759,0,0,0,.38-.653A.769.769,0,0,0,196.748,148.43Z" transform="translate(-166.141 -131.49)"/><path class="d" d="M1.7,237.73c.015,2.53.023,4.148.023,4.148a.741.741,0,0,0,.38.653.755.755,0,0,0,.76,0l19.394-11.311L15.237,224.2Z" transform="translate(-1.571 -207.168)"/></svg>