<svg xmlns="http://www.w3.org/2000/svg" width="35.656" height="24.312" viewBox="0 0 35.656 24.312"><defs><style>.a{fill:#fff;}</style></defs><path class="a" d="M34.5,1.75H1.152C.517,1.75,0,2.114,0,2.561V6.167c0,.447.517.811,1.152.811H34.5c.635,0,1.152-.364,1.152-.811V2.561C35.656,2.114,35.139,1.75,34.5,1.75Z" transform="translate(0 -1.75)"/><path class="a" d="M34.5,36.75H1.152c-.635,0-1.152.364-1.152.811v3.606c0,.447.517.811,1.152.811H34.5c.635,0,1.152-.364,1.152-.811V37.561C35.656,37.114,35.139,36.75,34.5,36.75Z" transform="translate(0 -27.208)"/><path class="a" d="M34.5,71.75H1.152c-.635,0-1.152.364-1.152.811v3.606c0,.447.517.811,1.152.811H34.5c.635,0,1.152-.364,1.152-.811V72.561C35.656,72.114,35.139,71.75,34.5,71.75Z" transform="translate(0 -52.667)"/></svg>