<svg xmlns="http://www.w3.org/2000/svg" width="39.188" height="39.188" viewBox="0 0 39.188 39.188"><path d="M26.942,0h-14.7A12.248,12.248,0,0,0,0,12.246v14.7A12.248,12.248,0,0,0,12.246,39.188h14.7A12.248,12.248,0,0,0,39.188,26.942v-14.7A12.248,12.248,0,0,0,26.942,0Zm8.572,26.942a8.582,8.582,0,0,1-8.572,8.572h-14.7a8.582,8.582,0,0,1-8.572-8.572v-14.7a8.582,8.582,0,0,1,8.572-8.572h14.7a8.582,8.582,0,0,1,8.572,8.572Z"/><g transform="translate(9.797 9.797)"><path d="M137.8,128a9.8,9.8,0,1,0,9.8,9.8A9.8,9.8,0,0,0,137.8,128Zm0,15.92a6.123,6.123,0,1,1,6.123-6.123A6.132,6.132,0,0,1,137.8,143.92Z" transform="translate(-128 -128)"/></g><g transform="translate(28.821 7.757)"><ellipse cx="1.305" cy="1.305" rx="1.305" ry="1.305"/></g></svg>