<svg xmlns="http://www.w3.org/2000/svg" width="241.524" height="74.717" viewBox="0 0 241.524 74.717"><defs><style>.a,.e{fill:#007bff;}.a,.b,.c{fill-rule:evenodd;}.b{fill:#fff;}.c,.d{fill:#4f5353;}</style></defs><path class="a" d="M35.317,76.116a8.706,8.706,0,0,0,3.271-.928c4.206-3.712,0-11.138-.467-16.708-2.337,5.105-8.411,11.138-5.14,15.779,0,.928,1.4,1.857,2.337,1.857M18.024,70.086a4.127,4.127,0,0,0,3.271.464C26.9,69.16,26.9,60.8,28.772,55.7c-4.206,3.712-12.617,6.033-12.15,11.6A3.3,3.3,0,0,0,18.024,70.086ZM5.874,56.628a3.155,3.155,0,0,0,2.8,1.857c5.607,1.39,9.346-6.5,14.019-9.746-5.607,1.39-14.019-.464-16.359,4.641a2.913,2.913,0,0,0-.467,3.248ZM1.2,39.453a3.3,3.3,0,0,0,1.4,2.784c4.206,3.712,11.215-1.39,16.823-2.321-5.6-1.388-12.148-6.958-16.823-3.244a3.3,3.3,0,0,0-1.4,2.78ZM4.938,21.816a3.939,3.939,0,0,0,0,3.248c2.337,5.105,10.748,4.177,15.888,5.569-4.2-3.708-7.475-11.6-13.083-10.67a3.842,3.842,0,0,0-2.8,1.857ZM17.089,7.9a3.814,3.814,0,0,0-1.869,2.784C14.752,16.716,22.7,19.5,26.9,23.213,25.033,18.108,25.5,9.755,19.893,7.9A2.957,2.957,0,0,0,17.089,7.9ZM33.912,1.4a3.842,3.842,0,0,0-2.8,1.857C27.838,7.9,33.912,14.394,35.315,19.5c.934-5.572,5.139-12.533,1.4-16.713a3.34,3.34,0,0,0-2.8-1.39ZM50.735,54.771h0c0-.464-.467-1.857,0-2.784a5.6,5.6,0,0,1,6.075-4.641h.465a4.647,4.647,0,0,1-1.869-2.321,5.7,5.7,0,0,1,3.274-6.962h.467a4.047,4.047,0,0,1-2.8-1.39,5.183,5.183,0,0,1-.467-7.426h.467a3.978,3.978,0,0,1-3.271,0,5.684,5.684,0,0,1-3.738-6.5v-.464a4.047,4.047,0,0,1-2.8,1.39,5.172,5.172,0,0,1-4.087-.439,5.108,5.108,0,0,1-2.456-3.273V19.5a4.647,4.647,0,0,1-1.871,2.321,4.886,4.886,0,0,1-7.477-.464v-.464a5.848,5.848,0,0,1-.467,2.784A5.171,5.171,0,0,1,27.4,26.855a5.229,5.229,0,0,1-4.235.071H22.7c.934.928-.467,8.353-3.271,8.817l-.466-.46A5.588,5.588,0,0,1,21.295,37.6a5.227,5.227,0,0,1-1.4,7.426h-.467a5.962,5.962,0,0,1,2.8.464,5.817,5.817,0,0,1,2.334,7.426l-.467.464a6.672,6.672,0,0,1,2.8-.928,5.3,5.3,0,0,1,3.761,1.7,5.228,5.228,0,0,1,1.379,3.869v.464c.467-.928,7.944-1.857,9.346.464v.464a6.564,6.564,0,0,1,.934-2.784,5.807,5.807,0,0,1,8.411-1.857ZM53.071,73.8a5.612,5.612,0,0,0,2.337-2.321c1.869-5.569-5.14-10.21-8.411-14.851.467,5.569-1.869,13.458,2.8,16.708a9.18,9.18,0,0,0,3.275.466Z" transform="translate(-1.199 -1.399)"/><path class="b" d="M21.322,36.83A15.315,15.315,0,1,0,5.9,21.515a15.1,15.1,0,0,0,4.468,10.878A15.312,15.312,0,0,0,21.322,36.83" transform="translate(16.065 16.079)"/><path class="c" d="M43.935,61.786a5.379,5.379,0,0,0,.934-3.248c-.934-5.57-9.343-6.5-14.019-9.282C34.121,53.9,35.523,62.25,41.131,62.714a5.033,5.033,0,0,0,2.8-.928Zm8.411-16.246a4.051,4.051,0,0,0-.467-3.248c-3.271-4.641-11.215-1.39-16.823-1.857,5.14,2.784,10.281,9.282,15.421,6.962.468,0,1.4-.925,1.869-1.853Zm-.467-18.1a3.086,3.086,0,0,0-1.869-2.321c-5.14-2.321-10.748,3.712-15.888,6.5,5.607,0,13.084,3.712,16.823-.928a4.4,4.4,0,0,0,.934-3.248ZM43,11.664a3.34,3.34,0,0,0-2.8-1.39c-5.607,0-7.477,8.353-11.215,12.995,5.14-2.321,13.552-2.784,14.487-8.353A4.051,4.051,0,0,0,43,11.664ZM28.047,1.918a4.127,4.127,0,0,0-3.271.464c-5.14,2.784-2.8,11.138-3.738,16.246,3.271-4.641,10.748-8.817,8.878-14.387A10.134,10.134,0,0,0,28.047,1.918Zm-13.552,36.2h-.467L9.354,36.261a1.722,1.722,0,0,0-1.4.46c-.467.464,0,.928.467,1.39h0l4.673,1.857h0c0,.928.934,1.39,1.869,1.39s1.4-.928,1.4-1.857h0l5.14-7.426c.467-.464,0-.928-.467-1.39h0c-.467-.464-.934,0-1.4.464Z" transform="translate(22.893 -0.06)"/><path class="d" d="M151.11,26.367a.784.784,0,0,0,.631-.223.772.772,0,0,0,.225-.627V17.545L159.607,3.3a.922.922,0,0,0,.08-.775.7.7,0,0,0-.621-.311h-4.6c-.467,0-.856.311-1.089.928q-2.57,5.105-4.206,8.591c-.154-.385-.388-.775-.621-1.318s-.7-1.55-1.4-2.943-1.4-2.943-2.183-4.641a1.122,1.122,0,0,0-1.014-.617h-4.77c-.313,0-.547.079-.621.311a.922.922,0,0,0,.08.775l7.477,14.243v7.973a.74.74,0,0,0,.21.641.751.751,0,0,0,.646.208Zm-25.955-9.829c1.089-3.791,1.794-6.349,2.183-7.741a6.921,6.921,0,0,0,.234.928c.154.543.388,1.471.78,2.711s.78,2.632,1.247,4.023h-4.444Zm-3.51,9.829a.933.933,0,0,0,.934-.7l1.247-3.945h7.094l1.168,3.95a.933.933,0,0,0,.934.7h4.519c.313,0,.547-.079.621-.232.154-.153.154-.385.08-.7L131.077,2.991a.933.933,0,0,0-.934-.7h-5.3a.933.933,0,0,0-.934.7l-7.4,22.448c-.08.311-.08.543.08.7a.769.769,0,0,0,.621.232Zm-21.029-5.5V7.715a7.462,7.462,0,0,0,1.089-.079c.621,0,1.014-.079,1.327-.079,3.818,0,5.686,2.085,5.686,6.349a6.969,6.969,0,0,1-2.416,6.033,6.422,6.422,0,0,1-3.818.85h-1.869Zm1.014,5.5a15.375,15.375,0,0,0,7.243-1.253,10.046,10.046,0,0,0,4.364-4.1,13.209,13.209,0,0,0,1.715-6.962,13.939,13.939,0,0,0-.547-4.177,9.807,9.807,0,0,0-3.587-5.341,10.541,10.541,0,0,0-2.57-1.471,15.35,15.35,0,0,0-5.767-.85c-2.028,0-4.051,0-6.159.079a2.534,2.534,0,0,0-1.247.232c-.234.153-.388.543-.388,1.239V25.578c0,.617.234.85.856.85h6.075Zm-11.683,0a.783.783,0,0,0,.631-.223.772.772,0,0,0,.225-.627V21.956a.772.772,0,0,0-.225-.627.784.784,0,0,0-.631-.223h-8.28V16.76h6.781a.784.784,0,0,0,.631-.223.772.772,0,0,0,.225-.627v-3.4a.74.74,0,0,0-.207-.65.751.751,0,0,0-.653-.209H81.669V7.634h7.579a.784.784,0,0,0,.631-.221.772.772,0,0,0,.227-.625V3.149a.772.772,0,0,0-.225-.627.784.784,0,0,0-.631-.223H76.678a.784.784,0,0,0-.631.223.772.772,0,0,0-.224.627V25.518a.74.74,0,0,0,.21.641.751.751,0,0,0,.646.208Zm-35.539,0a.783.783,0,0,0,.631-.223.772.772,0,0,0,.225-.627V12.667l4.112,7.342c.154.311.467.385.934.385h.234q.7,0,1.168-.928l3.738-6.887V25.438a.74.74,0,0,0,.21.641.751.751,0,0,0,.646.208h4.287a.784.784,0,0,0,.631-.223.772.772,0,0,0,.225-.627V3.163a.772.772,0,0,0-.225-.627.784.784,0,0,0-.631-.223h-4.05a1.122,1.122,0,0,0-1.014.617l-5.141,9.134-5.3-9.227a1.122,1.122,0,0,0-1.014-.617H50.023a.784.784,0,0,0-.631.223.772.772,0,0,0-.225.627V25.439c0,.617.234.85.856.85h4.364ZM33.382,16.538c1.089-3.791,1.794-6.349,2.183-7.741a6.923,6.923,0,0,0,.234.928c.154.543.388,1.471.78,2.711s.78,2.632,1.247,4.023H33.382ZM29.84,26.367a.933.933,0,0,0,.934-.7l1.245-3.95h7.094l1.168,3.95a.933.933,0,0,0,.934.7h4.519c.313,0,.547-.079.621-.232.154-.153.154-.385.08-.7L39.247,2.991a.933.933,0,0,0-.934-.7H33.031a.933.933,0,0,0-.934.7L24.7,25.439c-.08.311-.08.543.08.7a.769.769,0,0,0,.621.232Zm-15.51.464A9.861,9.861,0,0,0,20.872,24.9a6.938,6.938,0,0,0,2.337-5.647,7.286,7.286,0,0,0-.313-2.321,5.05,5.05,0,0,0-1.014-1.782,7.073,7.073,0,0,0-1.636-1.39,15.925,15.925,0,0,0-2.337-1.239l-1.864-.858A13.689,13.689,0,0,1,14.173,10.5a1.99,1.99,0,0,1-.547-1.55A1.589,1.589,0,0,1,14.4,7.479a3.731,3.731,0,0,1,2.028-.464,9.909,9.909,0,0,1,4.753,1.239.71.71,0,0,0,.78,0c.234-.079.313-.311.313-.7V4A1.047,1.047,0,0,0,21.73,2.99a16.108,16.108,0,0,0-6.154-1.082,9.109,9.109,0,0,0-6,1.857A6.652,6.652,0,0,0,7.317,9.182,8.255,8.255,0,0,0,7.7,11.655a5.234,5.234,0,0,0,1.089,1.936,8.732,8.732,0,0,0,1.561,1.39,11.571,11.571,0,0,0,1.953,1.08l1.949.928a4.816,4.816,0,0,1,1.869,1.16,1.812,1.812,0,0,1,.467,1.318,1.741,1.741,0,0,1-.78,1.7,4.928,4.928,0,0,1-2.416.464,10.56,10.56,0,0,1-5.3-1.7.775.775,0,0,0-.78-.153c-.229.087-.309.315-.309.7v3.712a1.047,1.047,0,0,0,.547,1.007,15.315,15.315,0,0,0,6.781,1.642Z" transform="translate(81.787 7.505)"/><path class="e" d="M314.342,26.354a.783.783,0,0,0,.63-.223.772.772,0,0,0,.224-.626V12.654L319.327,20c.154.311.467.385.856.385h.233q.584,0,1.168-.928l3.664-6.813V25.426a.772.772,0,0,0,.224.627.784.784,0,0,0,.631.223h4.205a.784.784,0,0,0,.631-.223.772.772,0,0,0,.225-.627V3.215a.772.772,0,0,0-.221-.627.784.784,0,0,0-.629-.227h-4.051a1.058,1.058,0,0,0-1.014.543l-5.066,9.055L315.117,2.9a1.057,1.057,0,0,0-1.014-.543h-3.967a.783.783,0,0,0-.631.223.772.772,0,0,0-.225.627V25.486a.74.74,0,0,0,.21.641.751.751,0,0,0,.646.208h4.206Zm-19.408-5.031a4.318,4.318,0,0,1-3.664-1.857,8.952,8.952,0,0,1-1.327-5.184A8.95,8.95,0,0,1,291.27,9.1a4.249,4.249,0,0,1,3.664-1.782,4.159,4.159,0,0,1,3.51,1.782,8.77,8.77,0,0,1,1.327,5.184,8.77,8.77,0,0,1-1.327,5.184,3.872,3.872,0,0,1-3.51,1.857Zm-.22,5.5a10.635,10.635,0,0,0,5.767-1.625,11.093,11.093,0,0,0,4.051-4.566,15.226,15.226,0,0,0,1.481-6.655,14.7,14.7,0,0,0-.855-4.952,10.759,10.759,0,0,0-2.337-3.87,9.779,9.779,0,0,0-3.431-2.4,11.042,11.042,0,0,0-4.206-.85,11.842,11.842,0,0,0-4.364.85,10.6,10.6,0,0,0-3.587,2.479,12.519,12.519,0,0,0-2.416,3.95,13.538,13.538,0,0,0-.855,5.105,14.676,14.676,0,0,0,.78,4.952,10.946,10.946,0,0,0,2.262,3.95,11.545,11.545,0,0,0,3.43,2.632,8.759,8.759,0,0,0,4.279,1Zm-18.781-.464a.783.783,0,0,0,.631-.223.771.771,0,0,0,.225-.627V7.87h4.6a.783.783,0,0,0,.63-.235A.772.772,0,0,0,282.228,7V3.215a.74.74,0,0,0-.208-.644.751.751,0,0,0-.648-.21H266.326a.784.784,0,0,0-.631.223.772.772,0,0,0-.224.627V6.923a.772.772,0,0,0,.224.627.784.784,0,0,0,.631.223h4.6V25.409a.772.772,0,0,0,.224.627.784.784,0,0,0,.631.223h4.131Zm-20.807.385a9.486,9.486,0,0,0,6.467-1.936,6.893,6.893,0,0,0,2.337-5.569,7.294,7.294,0,0,0-.313-2.321,5.838,5.838,0,0,0-1.014-1.782,8.739,8.739,0,0,0-1.561-1.39,14.7,14.7,0,0,0-2.261-1.239l-1.87-.85a8.772,8.772,0,0,1-1.869-1.16,2.264,2.264,0,0,1-.547-1.471,1.694,1.694,0,0,1,.7-1.471,3.759,3.759,0,0,1,2.028-.464A10.433,10.433,0,0,1,261.9,8.242q.467.232.7,0c.234-.079.313-.311.313-.7V4.063a1.047,1.047,0,0,0-.547-1.007,15.708,15.708,0,0,0-6.075-1.082,8.888,8.888,0,0,0-5.925,1.857,6.545,6.545,0,0,0-2.183,5.341,8.248,8.248,0,0,0,.385,2.479,5.934,5.934,0,0,0,1.089,1.936,8.734,8.734,0,0,0,1.561,1.39,11.566,11.566,0,0,0,1.952,1.084l1.949.928a5.535,5.535,0,0,1,1.87,1.16,1.812,1.812,0,0,1,.467,1.318,1.814,1.814,0,0,1-.78,1.7,4.928,4.928,0,0,1-2.416.464,11.19,11.19,0,0,1-5.3-1.625.775.775,0,0,0-.78-.153c-.234.079-.313.311-.313.7v3.712a1.047,1.047,0,0,0,.547,1.007,15.886,15.886,0,0,0,6.7,1.471Zm-20.5.079a9.96,9.96,0,0,0,6.543-2.168,9.3,9.3,0,0,0,3.271-6.117,21.317,21.317,0,0,0,.234-3.562V3.215a.772.772,0,0,0-.227-.636.784.784,0,0,0-.643-.218h-4.287a.784.784,0,0,0-.631.223.772.772,0,0,0-.225.627v12a22.6,22.6,0,0,1-.08,2.632,3.483,3.483,0,0,1-1.137,2.576,3.534,3.534,0,0,1-2.681.909,3.757,3.757,0,0,1-2.57-.775A4.406,4.406,0,0,1,230.951,18a20.09,20.09,0,0,1-.154-2.711V3.223a.772.772,0,0,0-.221-.64.784.784,0,0,0-.643-.223h-4.206a.784.784,0,0,0-.63.223.772.772,0,0,0-.224.626V15.28c0,1.239.08,2.4.154,3.486a8.1,8.1,0,0,0,1.561,4.334,7.56,7.56,0,0,0,3.35,2.711,10.811,10.811,0,0,0,4.673,1.011Zm-20.033,0a15.148,15.148,0,0,0,6.86-1.55,1.01,1.01,0,0,0,.467-.928V20.778q0-.58-.234-.7c-.154-.153-.313-.153-.621,0a15.358,15.358,0,0,1-5.607,1.318,5.21,5.21,0,0,1-4.131-1.7,7.732,7.732,0,0,1-1.561-5.263,10.393,10.393,0,0,1,.467-3.327,4.919,4.919,0,0,1,1.329-2.17,5.077,5.077,0,0,1,1.794-1.16,6.8,6.8,0,0,1,2.183-.385,12.926,12.926,0,0,1,5.377,1.163.47.47,0,0,0,.621-.079,1.021,1.021,0,0,0,.234-.775V4.063c0-.543-.154-.85-.547-.928A16.832,16.832,0,0,0,215,1.976a10.718,10.718,0,0,0-3.51.543,9.789,9.789,0,0,0-3.115,1.553,12.573,12.573,0,0,0-2.5,2.474,12,12,0,0,0-1.636,3.486,15.324,15.324,0,0,0-.621,4.334,13.343,13.343,0,0,0,3.037,9.134,10.437,10.437,0,0,0,7.926,3.318Z" transform="translate(-115.791 40.004)"/></svg>