<svg xmlns="http://www.w3.org/2000/svg" width="41.692" height="31.269" viewBox="0 0 41.692 31.269"><defs><style>.a{fill:#707070;}</style></defs><path class="a" d="M37.783,59.882H3.909A3.913,3.913,0,0,0,0,63.791V87.242a3.913,3.913,0,0,0,3.909,3.909H37.783a3.913,3.913,0,0,0,3.909-3.909V63.791A3.913,3.913,0,0,0,37.783,59.882Zm0,2.606a1.3,1.3,0,0,1,.5.1L20.846,77.7,3.409,62.589a1.3,1.3,0,0,1,.5-.1Zm0,26.057H3.909a1.3,1.3,0,0,1-1.3-1.3v-21.9L19.992,80.41a1.3,1.3,0,0,0,1.708,0L39.086,65.342v21.9A1.3,1.3,0,0,1,37.783,88.545Z" transform="translate(0 -59.882)"/></svg>