<svg xmlns="http://www.w3.org/2000/svg" width="52.542" height="45.867" viewBox="0 0 52.542 45.867"><defs><style>.a{fill:#007bff;}</style></defs><g transform="translate(-9 -25.634)"><path class="a" d="M58.343,45.4H55.693A2.587,2.587,0,0,0,53.2,43.6H50.374V37.125a.675.675,0,0,0-.356-.6L30.068,25.727a.78.78,0,0,0-.74,0L9.37,36.521a.688.688,0,0,0-.37.6V58.714a.691.691,0,0,0,.372.6L29.331,70.112a.784.784,0,0,0,.372.093.825.825,0,0,0,.383-.093l10.5-5.675v4.1a2.862,2.862,0,0,0,.93,2.1,3.266,3.266,0,0,0,2.249.859H58.343a3.285,3.285,0,0,0,2.257-.857,2.88,2.88,0,0,0,.942-2.1V48.4a3.115,3.115,0,0,0-3.2-3.007ZM53.229,45a1.048,1.048,0,0,1,1.081,1.012v.068a1.048,1.048,0,0,1-1.081,1.012H48.9a1.048,1.048,0,0,1-1.081-1.012v-.068A1.048,1.048,0,0,1,48.9,45ZM29.7,27.137,38,31.622,19.528,41.61l-8.293-4.485ZM29,68.3,10.489,58.311V38.332L29,48.321ZM29.7,47.113l-8.686-4.7,18.469-9.988,8.687,4.7ZM40.589,48.4V62.827L30.485,68.3V48.321l18.4-9.989V43.6h.023A2.587,2.587,0,0,0,46.418,45.4H43.768A3.1,3.1,0,0,0,40.589,48.4ZM60.053,68.539a1.526,1.526,0,0,1-.506,1.118,1.742,1.742,0,0,1-1.2.448H43.768a1.723,1.723,0,0,1-1.2-.45,1.509,1.509,0,0,1-.493-1.116V48.4a1.545,1.545,0,0,1,.488-1.134,1.762,1.762,0,0,1,1.2-.478h2.678a2.534,2.534,0,0,0,2.462,1.694H53.2a2.534,2.534,0,0,0,2.462-1.694h2.678A1.669,1.669,0,0,1,60.053,48.4Z"/><path class="a" d="M337.739,282.683h.779a.7.7,0,1,0,0-1.395h-.029v-1.893h2.053a.715.715,0,0,0,.708.471.725.725,0,0,0,.749-.7V278.7a.732.732,0,0,0-.753-.7h-3.507a.769.769,0,0,0-.525.207.674.674,0,0,0-.214.494v3.285a.671.671,0,0,0,.215.492A.765.765,0,0,0,337.739,282.683Z" transform="translate(-293.114 -227.223)"/><path class="a" d="M337.745,346.683h3.51a.722.722,0,0,0,.745-.7V342.7a.722.722,0,0,0-.745-.7h-3.51a.722.722,0,0,0-.745.7v3.288A.722.722,0,0,0,337.745,346.683Zm.745-3.288h2.021v1.893h-2.021Z" transform="translate(-293.114 -284.847)"/><path class="a" d="M338.518,409.288h-.029v-1.893H340.5a.75.75,0,0,0,1.5,0v-.672a.752.752,0,0,0-.753-.724h-3.507a.739.739,0,0,0-.739.724v3.285a.652.652,0,0,0,.218.483.745.745,0,0,0,.522.19h.779a.7.7,0,1,0,0-1.395Z" transform="translate(-293.113 -342.47)"/><path class="a" d="M358.469,284.743l-2.18,2.042-.663-.621a.781.781,0,0,0-1.053,0,.667.667,0,0,0,0,.986l1.19,1.114a.781.781,0,0,0,1.053,0l2.707-2.536a.667.667,0,0,0,0-.986.781.781,0,0,0-1.053,0Z" transform="translate(-308.622 -233.11)"/><path class="a" d="M358.469,413.992l-2.18,2.042-.663-.621a.781.781,0,0,0-1.053,0,.667.667,0,0,0,0,.986l1.19,1.114a.781.781,0,0,0,1.053,0l2.707-2.536a.667.667,0,0,0,0-.986.781.781,0,0,0-1.053,0Z" transform="translate(-308.622 -349.482)"/><path class="a" d="M419.312,295h-4.676a.7.7,0,1,0,0,1.395h4.676a.7.7,0,1,0,0-1.395Z" transform="translate(-361.826 -242.529)"/><path class="a" d="M419.312,359h-4.676a.7.7,0,1,0,0,1.395h4.676a.7.7,0,1,0,0-1.395Z" transform="translate(-361.826 -300.153)"/><path class="a" d="M419.312,423h-4.676a.7.7,0,1,0,0,1.395h4.676a.7.7,0,1,0,0-1.395Z" transform="translate(-361.826 -357.776)"/></g></svg>