<svg xmlns="http://www.w3.org/2000/svg" width="50" height="50" viewBox="0 0 50 50"><defs><style>.a{fill:#fff;}</style></defs><path class="a" d="M47.441,19.752l-3.509-.6a19.816,19.816,0,0,0-1.41-3.405l2.068-2.893a3.079,3.079,0,0,0-.334-3.98L41.142,5.767a3.066,3.066,0,0,0-2.183-.909,3.035,3.035,0,0,0-1.786.574L34.27,7.5a19.61,19.61,0,0,0-3.53-1.452l-.585-3.468A3.086,3.086,0,0,0,27.1,0h-4.4a3.086,3.086,0,0,0-3.05,2.58l-.606,3.551a19.328,19.328,0,0,0-3.395,1.431L12.785,5.5a3.085,3.085,0,0,0-3.98.334L5.682,8.942a3.092,3.092,0,0,0-.334,3.98l2.089,2.935a19.356,19.356,0,0,0-1.389,3.415l-3.468.585A3.086,3.086,0,0,0,0,22.907v4.4a3.086,3.086,0,0,0,2.58,3.05l3.551.606a19.328,19.328,0,0,0,1.431,3.395L5.5,37.216A3.079,3.079,0,0,0,5.839,41.2l3.113,3.113a3.066,3.066,0,0,0,2.183.909,3.035,3.035,0,0,0,1.786-.574l2.935-2.089a19.759,19.759,0,0,0,3.3,1.358l.585,3.509A3.086,3.086,0,0,0,22.791,50H27.2a3.086,3.086,0,0,0,3.05-2.58l.6-3.509a19.816,19.816,0,0,0,3.405-1.41l2.893,2.068a3.066,3.066,0,0,0,1.8.574h0a3.066,3.066,0,0,0,2.183-.909l3.113-3.113a3.092,3.092,0,0,0,.334-3.98l-2.068-2.9a19.674,19.674,0,0,0,1.41-3.405l3.509-.585A3.086,3.086,0,0,0,50,27.2V22.8A3.048,3.048,0,0,0,47.441,19.752ZM47.2,27.2a.271.271,0,0,1-.23.272l-4.387.731a1.4,1.4,0,0,0-1.128,1.034,16.721,16.721,0,0,1-1.817,4.376,1.412,1.412,0,0,0,.063,1.535l2.58,3.635a.284.284,0,0,1-.031.355l-3.113,3.113a.265.265,0,0,1-.2.084.257.257,0,0,1-.157-.052L35.158,39.7a1.411,1.411,0,0,0-1.535-.063,16.72,16.72,0,0,1-4.376,1.817,1.386,1.386,0,0,0-1.034,1.128l-.742,4.387a.271.271,0,0,1-.272.23H22.8a.271.271,0,0,1-.272-.23L21.8,42.585a1.4,1.4,0,0,0-1.034-1.128A17.362,17.362,0,0,1,16.482,39.7a1.446,1.446,0,0,0-.71-.188,1.376,1.376,0,0,0-.815.261l-3.656,2.6a.311.311,0,0,1-.157.052.28.28,0,0,1-.2-.084L7.834,39.232a.283.283,0,0,1-.031-.355l2.569-3.6a1.43,1.43,0,0,0,.063-1.546A16.563,16.563,0,0,1,8.6,29.362a1.43,1.43,0,0,0-1.128-1.034L3.05,27.576a.271.271,0,0,1-.23-.272v-4.4a.271.271,0,0,1,.23-.272L7.405,21.9a1.412,1.412,0,0,0,1.138-1.044,16.7,16.7,0,0,1,1.786-4.387,1.4,1.4,0,0,0-.073-1.525l-2.6-3.656a.284.284,0,0,1,.031-.355L10.8,7.824a.265.265,0,0,1,.2-.084.257.257,0,0,1,.157.052l3.6,2.569a1.43,1.43,0,0,0,1.546.063A16.563,16.563,0,0,1,20.67,8.587,1.43,1.43,0,0,0,21.7,7.459l.752-4.418a.271.271,0,0,1,.272-.23h4.4a.271.271,0,0,1,.272.23L28.128,7.4a1.412,1.412,0,0,0,1.044,1.138,16.954,16.954,0,0,1,4.481,1.838,1.412,1.412,0,0,0,1.535-.063l3.6-2.59a.311.311,0,0,1,.157-.052.28.28,0,0,1,.2.084l3.113,3.113a.283.283,0,0,1,.031.355l-2.58,3.624a1.411,1.411,0,0,0-.063,1.535,16.721,16.721,0,0,1,1.817,4.376,1.386,1.386,0,0,0,1.128,1.034l4.387.742a.271.271,0,0,1,.23.272v4.4Z" transform="translate(0 -0.001)"/><path class="a" d="M148.863,136a12.763,12.763,0,1,0,12.763,12.763A12.771,12.771,0,0,0,148.863,136Zm0,22.19a9.427,9.427,0,1,1,9.427-9.427A9.433,9.433,0,0,1,148.863,158.191Z" transform="translate(-123.859 -123.769)"/></svg>