<svg xmlns="http://www.w3.org/2000/svg" width="36" height="38.739" viewBox="0 0 36 38.739"><defs><style>.a{fill:#fff;}</style></defs><g transform="translate(-19.2 0)"><path class="a" d="M27.46,25.507H48.805A4.4,4.4,0,0,0,53.2,21.112V12.036a.1.1,0,0,0-.008-.048c0-.016-.008-.04-.008-.056s-.008-.032-.008-.048a.507.507,0,0,1-.016-.056c-.008-.016-.008-.032-.016-.048s-.008-.032-.016-.048a.388.388,0,0,1-.024-.056.174.174,0,0,0-.024-.04l-.024-.048c-.008-.016-.016-.024-.024-.04s-.024-.032-.032-.048a.14.14,0,0,0-.032-.04c-.008-.016-.024-.024-.032-.04s-.024-.024-.032-.04-.024-.024-.032-.032l-.04-.04c-.016-.008-.024-.024-.04-.032s-.032-.024-.048-.032-.024-.016-.04-.024a.167.167,0,0,1-.048-.032l-.048-.024-.048-.024-.048-.024c-.016-.008-.032-.008-.048-.016a.148.148,0,0,0-.056-.016.345.345,0,0,1-.04-.008.175.175,0,0,0-.064-.008c-.008,0-.016-.008-.032-.008L25.223,7.33V3.557a.489.489,0,0,0-.008-.111.06.06,0,0,0-.008-.032c0-.024-.008-.048-.008-.072s-.008-.04-.016-.064-.008-.024-.008-.04l-.024-.072c0-.008-.008-.024-.008-.032a.238.238,0,0,0-.032-.064c-.008-.008-.008-.024-.016-.032a.167.167,0,0,0-.032-.048c-.008-.016-.016-.024-.024-.04s-.016-.024-.024-.04-.024-.032-.032-.048L24.96,2.84l-.048-.048-.024-.024a.346.346,0,0,0-.056-.048c-.008-.008-.024-.016-.032-.024s-.032-.024-.048-.04a.734.734,0,0,0-.064-.04c-.008-.008-.016-.008-.024-.016-.032-.016-.072-.032-.1-.048L18.695.085a1.076,1.076,0,1,0-.836,1.982l5.207,2.2V27.816a4.4,4.4,0,0,0,3.83,4.355A4.337,4.337,0,1,0,34.952,34.4a4.257,4.257,0,0,0-.6-2.189h9.665a4.278,4.278,0,0,0-.6,2.189,4.339,4.339,0,1,0,4.339-4.339H27.46a2.248,2.248,0,0,1-2.245-2.245V24.9A4.445,4.445,0,0,0,27.46,25.507Zm5.35,8.885A2.189,2.189,0,1,1,30.621,32.2,2.193,2.193,0,0,1,32.811,34.392Zm17.149,0A2.189,2.189,0,1,1,47.77,32.2,2.193,2.193,0,0,1,49.96,34.392ZM48.805,23.357H27.46a2.248,2.248,0,0,1-2.245-2.245V9.5l25.835,3.559V21.1A2.249,2.249,0,0,1,48.805,23.357Z" transform="translate(2 0)"/></g></svg>