<svg xmlns="http://www.w3.org/2000/svg" width="49.508" height="50" viewBox="0 0 49.508 50"><defs><style>.a{fill:#fff;}</style></defs><g transform="translate(-2.522 0)"><g transform="translate(41.302 40.263)"><path class="a" d="M405.018,412.783a.981.981,0,0,0-1.34-.359l-3.567,2.059a.981.981,0,1,0,.981,1.7l3.567-2.059A.981.981,0,0,0,405.018,412.783Z" transform="translate(-399.621 -412.293)"/></g><g transform="translate(2.522 0)"><path class="a" d="M52.029,28.423a.969.969,0,0,0-.008-.12V28.3A.985.985,0,0,0,52,28.189l-.008-.029c-.008-.029-.018-.057-.029-.085l-.011-.029a.992.992,0,0,0-.051-.1l0,0a.983.983,0,0,0-.064-.1l-.019-.024q-.028-.035-.059-.067l-.021-.022a.965.965,0,0,0-.082-.072l-.006,0a.979.979,0,0,0-.1-.067l-.007,0L40.143,21V7.844s0-.005,0-.008a.978.978,0,0,0-.008-.12V7.709a.957.957,0,0,0-.022-.109L40.1,7.572c-.008-.029-.018-.058-.03-.087l-.011-.027a.9.9,0,0,0-.117-.2l-.019-.023q-.029-.036-.06-.068l-.021-.021a.987.987,0,0,0-.082-.072l-.006,0A.986.986,0,0,0,39.66,7l-.007,0L27.766.132a.981.981,0,0,0-.981,0L14.9,6.994l-.007,0a.978.978,0,0,0-.1.067l0,0a.982.982,0,0,0-.083.073l-.021.021q-.031.033-.06.069l-.019.023a.905.905,0,0,0-.117.2l-.011.028q-.017.042-.029.086L14.44,7.6a.979.979,0,0,0-.022.108v.007a.972.972,0,0,0-.008.12s0,.006,0,.008V21l-11.4,6.579-.007,0a.961.961,0,0,0-.1.067l0,0a.949.949,0,0,0-.083.073l-.021.021q-.031.033-.06.068l-.019.024a.986.986,0,0,0-.064.1v0a.974.974,0,0,0-.051.1l-.011.029c-.011.028-.021.056-.029.085l-.008.029a.966.966,0,0,0-.021.107V28.3a.97.97,0,0,0-.008.12s0,.006,0,.008V42.157h0a.981.981,0,0,0,.491.85L14.9,49.869l.007,0a.983.983,0,0,0,.108.053l.007,0a.983.983,0,0,0,.1.035l.029.007c.029.007.058.013.088.017l.03,0a.907.907,0,0,0,.233,0l.03,0c.03,0,.059-.01.088-.017l.029-.008a.949.949,0,0,0,.1-.035l.007,0a.961.961,0,0,0,.108-.053l.008,0,11.4-6.579,11.4,6.579.008,0a.975.975,0,0,0,.108.053l.008,0a.965.965,0,0,0,.1.035l.029.008c.029.007.058.013.088.017l.03,0a.908.908,0,0,0,.233,0l.03,0c.03,0,.059-.01.088-.017l.029-.008a.952.952,0,0,0,.1-.035l.008,0a.993.993,0,0,0,.108-.053l.008,0,11.887-6.862a.981.981,0,0,0,.491-.85V28.431A.065.065,0,0,0,52.029,28.423Zm-8.875-3.416L33.23,30.736l-3.992-2.3L39.162,22.7Zm-4.973-4-9.924,5.729V15.273l9.924-5.73ZM27.276,2.114l3.992,2.3-9.924,5.73-3.992-2.3ZM15.39,22.7l3.991,2.3L9.457,30.736l-3.992-2.3ZM14.409,47.32,4.484,41.591V30.131l4.227,2.44a.977.977,0,0,0,.473.273l5.224,3.016V47.32Zm.981-13.159-3.97-2.292,9.924-5.729,3.97,2.292Zm10.9,7.43L16.371,47.32V35.86l9.924-5.729Zm0-14.859L16.371,21V9.543L20.6,11.983a.978.978,0,0,0,.477.275l5.222,3.016V26.732Zm-2.988-15.45,9.924-5.73L37.2,7.844l-9.924,5.73ZM38.18,47.32l-9.923-5.729V30.131l4.227,2.44a.978.978,0,0,0,.472.273l5.224,3.016V47.32Zm.981-13.159-3.969-2.292,9.924-5.73,3.97,2.292Zm10.906,7.43L40.143,47.32V35.86l9.924-5.729Z" transform="translate(-2.522 0)"/></g><g transform="translate(47.358 38.982)"><path class="a" d="M462.584,399.171a.982.982,0,0,0,0,1.962A.982.982,0,0,0,462.584,399.171Z" transform="translate(-461.637 -399.171)"/></g></g></svg>