<svg xmlns="http://www.w3.org/2000/svg" width="34.999" height="34.999" viewBox="0 0 34.999 34.999"><defs><style>.a{fill:#fff;}</style></defs><g transform="translate(0 -1.688)"><g transform="translate(0 1.688)"><g transform="translate(0)"><path class="a" d="M254.693,423.2c-.289.072-.583.137-.875.191a1.421,1.421,0,0,0-.554,2.552,1.4,1.4,0,0,0,1.066.235c.348-.065.7-.142,1.042-.228a1.417,1.417,0,0,0-.68-2.75Z" transform="translate(-233.658 -391.215)"/><path class="a" d="M412.868,139a1.412,1.412,0,0,0,.524.712,1.4,1.4,0,0,0,1.254.188,1.42,1.42,0,0,0,.893-1.791c-.111-.339-.235-.678-.366-1.009a1.4,1.4,0,0,0-1.829-.79,1.42,1.42,0,0,0-.784,1.842C412.671,138.432,412.775,138.717,412.868,139Z" transform="translate(-381.428 -126.015)"/><path class="a" d="M322.333,394.146c-.248.165-.5.325-.762.475a1.423,1.423,0,0,0-.108,2.386,1.4,1.4,0,0,0,1.514.069c.307-.178.612-.368.907-.565a1.424,1.424,0,0,0,.4-1.964A1.4,1.4,0,0,0,322.333,394.146Z" transform="translate(-296.726 -364.187)"/><path class="a" d="M430.447,208.673a1.407,1.407,0,1,0-2.812.111c.012.3.015.6.008.9a1.419,1.419,0,0,0,.6,1.191,1.4,1.4,0,0,0,.778.258,1.412,1.412,0,0,0,1.437-1.386C430.464,209.391,430.461,209.03,430.447,208.673Z" transform="translate(-395.461 -191.728)"/><path class="a" d="M379.621,344.352a1.4,1.4,0,0,0-1.97.283c-.179.24-.367.477-.559.7a1.425,1.425,0,0,0,.159,2c.034.029.068.055.1.08a1.4,1.4,0,0,0,1.88-.24c.23-.272.454-.555.668-.841A1.425,1.425,0,0,0,379.621,344.352Z" transform="translate(-348.411 -318.121)"/><path class="a" d="M415.9,279.417a1.4,1.4,0,0,0-1.763.928c-.089.285-.187.572-.294.853a1.424,1.424,0,0,0,.5,1.663,1.4,1.4,0,0,0,2.126-.653c.126-.334.244-.675.349-1.014A1.42,1.42,0,0,0,415.9,279.417Z" transform="translate(-382.623 -258.309)"/><path class="a" d="M14.9,33.874a14.452,14.452,0,0,1-3.609-1.155c-.014-.007-.026-.015-.04-.022-.27-.128-.539-.265-.8-.408l0,0A14.827,14.827,0,0,1,5.5,10.8,14.674,14.674,0,0,1,9.106,7.182l.05-.035a14.619,14.619,0,0,1,16.483-.133l-1.1,1.6c-.306.445-.118.77.417.721L29.732,8.9a.792.792,0,0,0,.712-1.036L29.162,3.214c-.144-.522-.511-.584-.817-.139l-1.1,1.6A17.274,17.274,0,0,0,14.511,1.951q-.676.118-1.332.286l-.009,0-.051.014A17.343,17.343,0,0,0,3.5,8.748c-.02.024-.041.048-.06.074-.08.108-.159.219-.237.33-.127.182-.252.368-.372.554-.015.022-.026.045-.039.068A17.569,17.569,0,0,0,.018,20.08c0,.012,0,.024,0,.036.016.356.044.716.082,1.071,0,.023.007.045.011.067.039.357.089.714.15,1.072a17.534,17.534,0,0,0,4.9,9.485l.018.019.006.006a17.759,17.759,0,0,0,2.241,1.887A17.281,17.281,0,0,0,14.4,36.664a1.417,1.417,0,0,0,.5-2.79Z" transform="translate(0 -1.688)"/><path class="a" d="M207.126,83.2a1.143,1.143,0,0,0-1.139,1.147V95.769l10.373,5.4a1.125,1.125,0,0,0,.522.128,1.137,1.137,0,0,0,1.012-.62,1.15,1.15,0,0,0-.489-1.545l-9.142-4.761V84.345A1.142,1.142,0,0,0,207.126,83.2Z" transform="translate(-190.49 -77.021)"/></g></g></g></svg>