<svg xmlns="http://www.w3.org/2000/svg" width="39.797" height="39.797" viewBox="0 0 39.797 39.797"><defs><style>.a{fill:none;stroke:#000;}</style></defs><g transform="translate(0.5 0.5)"><ellipse class="a" cx="19.399" cy="19.399" rx="19.399" ry="19.399" transform="translate(0 0)"/><g transform="translate(8.677 11.762)"><path d="M47.7,36.206a9.251,9.251,0,0,1-2.664.729,4.649,4.649,0,0,0,2.036-2.568,9.276,9.276,0,0,1-2.944,1.125,4.638,4.638,0,0,0-7.9,4.23,13.163,13.163,0,0,1-9.555-4.841,4.638,4.638,0,0,0,1.436,6.191,4.6,4.6,0,0,1-2.1-.581v.059a4.638,4.638,0,0,0,3.72,4.547,4.655,4.655,0,0,1-2.1.081,4.638,4.638,0,0,0,4.331,3.22A9.36,9.36,0,0,1,25.1,50.312,13.187,13.187,0,0,0,45.4,39.2c0-.2,0-.4-.013-.6A9.4,9.4,0,0,0,47.7,36.206Z" transform="translate(-25.1 -34.024)"/></g></g></svg>